<svg width="26" height="26" viewBox="0 0 26 26" fill="none" xmlns="http://www.w3.org/2000/svg">
<circle cx="13" cy="13" r="12.4" fill="#242834" stroke="white" stroke-width="0.8"/>
<line x1="13.4" y1="1" x2="13.4" y2="4" stroke="white" stroke-width="0.8"/>
<line x1="13.4" y1="22" x2="13.4" y2="25" stroke="white" stroke-width="0.8"/>
<line x1="1" y1="12.6" x2="4" y2="12.6" stroke="white" stroke-width="0.8"/>
<line x1="22" y1="12.6" x2="25" y2="12.6" stroke="white" stroke-width="0.8"/>
<path d="M7.69957 17V16.2045L10.1605 13.6548C10.4233 13.3778 10.6399 13.1352 10.8104 12.9268C10.9832 12.7161 11.1122 12.5161 11.1974 12.3267C11.2827 12.1373 11.3253 11.9361 11.3253 11.723C11.3253 11.4815 11.2685 11.2732 11.1548 11.098C11.0412 10.9205 10.8861 10.7843 10.6896 10.6896C10.4931 10.5926 10.2718 10.544 10.0256 10.544C9.76515 10.544 9.53788 10.5973 9.34375 10.7038C9.14962 10.8104 9.00047 10.9607 8.89631 11.1548C8.79214 11.349 8.74006 11.5762 8.74006 11.8366H7.69247C7.69247 11.3939 7.79427 11.0069 7.99787 10.6754C8.20147 10.344 8.48082 10.0871 8.83594 9.90483C9.19105 9.72017 9.5947 9.62784 10.0469 9.62784C10.5038 9.62784 10.9063 9.71899 11.2543 9.90128C11.6046 10.0812 11.8781 10.3274 12.0746 10.6399C12.2711 10.95 12.3693 11.3004 12.3693 11.6911C12.3693 11.9609 12.3184 12.2249 12.2166 12.483C12.1172 12.741 11.9432 13.0286 11.6946 13.3459C11.446 13.6607 11.1004 14.0431 10.6577 14.4929L9.21236 16.0057V16.0589H12.4865V17H7.69957ZM13.3584 15.5795V14.6918L16.5012 9.72727H17.2008V11.0341H16.7569L14.509 14.5923V14.6491H18.8165V15.5795H13.3584ZM16.8066 17V15.3097L16.8137 14.9048V9.72727H17.8542V17H16.8066Z" fill="white"/>
</svg>
