<svg width="430" height="430" viewBox="0 0 430 430" fill="none" xmlns="http://www.w3.org/2000/svg">
<path d="M346.78 227.095C333.34 236.005 313.09 239.905 294.37 241.475C308.6 253.725 322.69 268.805 328.32 283.895C329.288 286.492 329.632 289.279 329.325 292.033C329.018 294.787 328.068 297.431 326.552 299.75C325.036 302.07 322.997 304.001 320.598 305.388C318.198 306.775 315.507 307.579 312.74 307.735C307.555 307.966 302.364 307.42 297.34 306.115C294.852 305.503 292.26 305.441 289.746 305.934C287.231 306.427 284.854 307.463 282.781 308.969C280.709 310.476 278.989 312.416 277.744 314.656C276.498 316.895 275.757 319.379 275.57 321.935C275.253 327.12 274.168 332.229 272.35 337.095C271.345 339.675 269.748 341.984 267.688 343.835C265.628 345.685 263.162 347.027 260.49 347.752C257.817 348.476 255.011 348.564 252.298 348.007C249.586 347.45 247.041 346.264 244.87 344.545C232.24 334.545 222.26 316.455 215 299.125C207.74 316.455 197.76 334.515 185.13 344.545C182.959 346.264 180.415 347.45 177.702 348.007C174.989 348.564 172.184 348.476 169.511 347.752C166.838 347.027 164.373 345.685 162.313 343.835C160.253 341.984 158.656 339.675 157.65 337.095C155.833 332.229 154.748 327.12 154.43 321.935C154.244 319.379 153.502 316.895 152.257 314.656C151.011 312.416 149.292 310.476 147.219 308.969C145.146 307.463 142.77 306.427 140.255 305.934C137.74 305.441 135.149 305.503 132.66 306.115C127.637 307.42 122.446 307.966 117.26 307.735C114.494 307.579 111.802 306.775 109.403 305.388C107.004 304.001 104.964 302.07 103.448 299.75C101.932 297.431 100.982 294.787 100.675 292.033C100.368 289.279 100.713 286.492 101.68 283.895C107.31 268.805 121.4 253.725 135.63 241.475C116.91 239.905 96.6303 236.005 83.2203 227.095C80.9101 225.564 78.992 223.512 77.6208 221.104C76.2495 218.696 75.4636 215.999 75.3264 213.231C75.1892 210.463 75.7045 207.702 76.8308 205.17C77.9571 202.638 79.6628 200.406 81.8103 198.655C85.8665 195.408 90.3912 192.795 95.2303 190.905C97.6059 189.94 99.7419 188.468 101.489 186.591C103.235 184.714 104.551 182.477 105.342 180.039C106.134 177.6 106.383 175.017 106.072 172.472C105.76 169.927 104.896 167.481 103.54 165.305C100.749 160.929 98.629 156.159 97.2503 151.155C96.5445 148.477 96.4776 145.67 97.0552 142.962C97.6327 140.253 98.8385 137.718 100.575 135.561C102.312 133.404 104.531 131.685 107.054 130.543C109.577 129.4 112.333 128.867 115.1 128.985C131.2 129.665 149.88 138.415 165.95 148.155C161.64 129.875 159.1 109.395 163.42 93.8749C164.165 91.2105 165.524 88.758 167.389 86.7145C169.254 84.6711 171.572 83.0938 174.157 82.1094C176.743 81.1251 179.523 80.7612 182.275 81.0469C185.026 81.3327 187.672 82.2602 190 83.7549C194.337 86.6166 198.22 90.1121 201.52 94.1249C203.172 96.0824 205.232 97.6557 207.555 98.735C209.878 99.8142 212.409 100.373 214.97 100.373C217.532 100.373 220.063 99.8142 222.386 98.735C224.709 97.6557 226.768 96.0824 228.42 94.1249C231.739 90.1075 235.643 86.6118 240 83.7549C242.33 82.2542 244.979 81.322 247.735 81.0336C250.491 80.7451 253.276 81.1085 255.866 82.0943C258.455 83.0801 260.777 84.6608 262.643 86.7089C264.51 88.757 265.869 91.2151 266.61 93.8849C270.93 109.405 268.39 129.885 264.08 148.165C280.15 138.425 298.83 129.675 314.93 128.995C317.697 128.877 320.453 129.41 322.976 130.553C325.499 131.695 327.719 133.414 329.455 135.571C331.192 137.728 332.398 140.263 332.975 142.972C333.553 145.68 333.486 148.487 332.78 151.165C331.402 156.169 329.281 160.939 326.49 165.315C325.134 167.491 324.27 169.937 323.959 172.482C323.648 175.027 323.897 177.61 324.688 180.049C325.48 182.487 326.795 184.724 328.542 186.601C330.289 188.478 332.425 189.95 334.8 190.915C339.628 192.805 344.143 195.415 348.19 198.655C350.338 200.406 352.044 202.638 353.17 205.17C354.296 207.702 354.812 210.463 354.674 213.231C354.537 215.999 353.751 218.696 352.38 221.104C351.009 223.512 349.091 225.564 346.78 227.095Z" fill="#F24C00"/>
<g style="mix-blend-mode:multiply" opacity="0.5">
<path d="M215 172.725V140.885" stroke="#F24C00" stroke-width="7" stroke-linecap="round" stroke-linejoin="round"/>
</g>
<g style="mix-blend-mode:multiply" opacity="0.5">
<path d="M174.14 202.405L143.86 192.565" stroke="#F24C00" stroke-width="7" stroke-linecap="round" stroke-linejoin="round"/>
</g>
<g style="mix-blend-mode:multiply" opacity="0.5">
<path d="M189.75 250.435L171.03 276.195" stroke="#F24C00" stroke-width="7" stroke-linecap="round" stroke-linejoin="round"/>
</g>
<g style="mix-blend-mode:multiply" opacity="0.5">
<path d="M240.25 250.435L258.97 276.195" stroke="#F24C00" stroke-width="7" stroke-linecap="round" stroke-linejoin="round"/>
</g>
<g style="mix-blend-mode:multiply" opacity="0.5">
<path d="M255.86 202.405L286.14 192.565" stroke="#F24C00" stroke-width="7" stroke-linecap="round" stroke-linejoin="round"/>
</g>
<path d="M215 258.635C238.721 258.635 257.95 239.405 257.95 215.685C257.95 191.964 238.721 172.735 215 172.735C191.28 172.735 172.05 191.964 172.05 215.685C172.05 239.405 191.28 258.635 215 258.635Z" fill="#FFC738"/>
<g style="mix-blend-mode:multiply" opacity="0.5">
<path d="M178 331.505C176.178 326.64 175.093 321.53 174.78 316.345C174.594 313.789 173.852 311.305 172.607 309.066C171.361 306.826 169.642 304.886 167.569 303.379C165.496 301.873 163.12 300.837 160.605 300.344C158.091 299.851 155.499 299.913 153.01 300.525C147.983 301.831 142.789 302.378 137.6 302.145C134.834 301.989 132.142 301.185 129.743 299.798C127.344 298.411 125.304 296.48 123.788 294.16C122.272 291.841 121.323 289.197 121.015 286.443C120.708 283.689 121.053 280.902 122.02 278.305C127.66 263.215 141.74 248.135 155.97 235.885C137.26 234.315 116.97 230.415 103.57 221.505C101.261 219.975 99.3442 217.924 97.9733 215.517C96.6024 213.11 95.8162 210.415 95.678 207.649C95.5398 204.882 96.0536 202.122 97.1778 199.591C98.3021 197.059 100.005 194.827 102.15 193.075C106.209 189.833 110.733 187.22 115.57 185.325C117.945 184.358 120.079 182.885 121.825 181.008C123.571 179.131 124.886 176.896 125.678 174.458C126.47 172.02 126.721 169.439 126.412 166.894C126.103 164.349 125.243 161.903 123.89 159.725C121.097 155.349 118.973 150.579 117.59 145.575C116.871 142.822 116.828 139.936 117.467 137.164C118.107 134.391 119.408 131.815 121.26 129.655C119.22 129.33 117.164 129.12 115.1 129.025C112.333 128.909 109.577 129.444 107.054 130.587C104.531 131.731 102.312 133.45 100.576 135.608C98.839 137.766 97.6334 140.302 97.0558 143.011C96.4783 145.72 96.5449 148.526 97.2504 151.205C98.6291 156.209 100.749 160.979 103.54 165.355C104.895 167.531 105.757 169.978 106.067 172.522C106.378 175.067 106.128 177.649 105.337 180.087C104.546 182.525 103.231 184.761 101.485 186.638C99.7396 188.515 97.6048 189.989 95.2304 190.955C90.3943 192.83 85.8698 195.426 81.8104 198.655C79.6648 200.407 77.9609 202.638 76.8358 205.169C75.7107 207.7 75.196 210.46 75.3332 213.226C75.4704 215.993 76.2557 218.688 77.6257 221.095C78.9956 223.502 80.9121 225.554 83.2204 227.085C96.6604 235.995 116.91 239.895 135.63 241.465C121.4 253.715 107.31 268.785 101.68 283.885C100.713 286.482 100.368 289.269 100.675 292.023C100.983 294.777 101.932 297.421 103.448 299.74C104.964 302.06 107.004 303.991 109.403 305.378C111.802 306.765 114.494 307.569 117.26 307.725C122.446 307.952 127.636 307.406 132.66 306.105C135.149 305.491 137.741 305.428 140.256 305.92C142.772 306.412 145.149 307.448 147.222 308.955C149.296 310.462 151.015 312.403 152.26 314.643C153.505 316.883 154.246 319.369 154.43 321.925C154.749 327.11 155.834 332.218 157.65 337.085C158.655 339.666 160.252 341.975 162.312 343.826C164.373 345.677 166.839 347.018 169.512 347.742C172.186 348.466 174.992 348.552 177.704 347.993C180.417 347.434 182.961 346.246 185.13 344.525C186.25 343.645 187.34 342.665 188.42 341.665C186.06 340.812 183.909 339.464 182.112 337.712C180.315 335.959 178.913 333.843 178 331.505Z" fill="#F24C00"/>
</g>
<g style="mix-blend-mode:multiply" opacity="0.5">
<path d="M222.11 250.915C214.206 248.323 207.223 243.493 202.008 237.012C196.793 230.531 193.571 222.677 192.73 214.4C191.89 206.124 193.468 197.782 197.273 190.385C201.079 182.988 206.948 176.853 214.17 172.725C207.628 172.843 201.199 174.453 195.374 177.435C189.549 180.416 184.482 184.688 180.561 189.926C176.639 195.164 173.966 201.229 172.745 207.658C171.525 214.086 171.79 220.709 173.519 227.02C175.248 233.33 178.397 239.163 182.724 244.071C187.051 248.979 192.443 252.834 198.487 255.341C204.531 257.848 211.068 258.941 217.599 258.536C224.13 258.131 230.482 256.239 236.17 253.005C231.4 253.095 226.648 252.388 222.11 250.915Z" fill="#FFC738"/>
</g>
<path d="M223.195 197.107H223.205" stroke="#F24C00" stroke-width="12" stroke-miterlimit="10" stroke-linecap="round"/>
<path d="M235.378 217.892H235.388" stroke="#F24C00" stroke-width="12" stroke-miterlimit="10" stroke-linecap="round"/>
<path d="M211.815 217.892H211.825" stroke="#F24C00" stroke-width="12" stroke-miterlimit="10" stroke-linecap="round"/>
</svg>
